<svg xmlns="http://www.w3.org/2000/svg" xmlns:xlink="http://www.w3.org/1999/xlink" width="536.49" height="114.396" viewBox="0 0 536.49 114.396">
  <defs>
    <clipPath id="clip-path">
      <rect id="Rectangle_1024" data-name="Rectangle 1024" width="491.845" height="114.396" fill="#fff"/>
    </clipPath>
  </defs>
  <g id="Group_645" data-name="Group 645" transform="translate(-770.177 -240)">
    <g id="Group_597" data-name="Group 597" transform="translate(814.821 240)">
      <g id="Group_596" data-name="Group 596" clip-path="url(#clip-path)">
        <path id="Path_21" data-name="Path 21" d="M5.893,159.579c-.031,0-.063,0-.095,0q-2.273-.169-4.546-.37A1.446,1.446,0,0,1,0,157.614a1.4,1.4,0,0,1,1.469-1.353q2.255.2,4.512.367A1.443,1.443,0,0,1,7.251,158.2a1.414,1.414,0,0,1-1.358,1.376" transform="translate(0 -79.32)" fill="#fff"/>
        <path id="Path_22" data-name="Path 22" d="M344.088,114.4c-.837,0-1.687-.038-2.526-.114a1.446,1.446,0,0,1-1.244-1.594,1.4,1.4,0,0,1,1.471-1.35,24.38,24.38,0,0,0,8.515-.708,1.356,1.356,0,0,1,1.652,1.074,1.489,1.489,0,0,1-.991,1.792,26.291,26.291,0,0,1-6.877.9m-11.169-2.344a1.269,1.269,0,0,1-.5-.1,29.848,29.848,0,0,1-8.12-5.167,1.564,1.564,0,0,1-.183-2.079,1.292,1.292,0,0,1,1.918-.2,27.157,27.157,0,0,0,7.39,4.7,1.521,1.521,0,0,1,.763,1.918,1.369,1.369,0,0,1-1.267.933m25.869-2.574a1.331,1.331,0,0,1-1.118-.631,1.557,1.557,0,0,1,.336-2.057,28.938,28.938,0,0,0,6.165-6.452,1.294,1.294,0,0,1,1.91-.279,1.562,1.562,0,0,1,.257,2.07,31.774,31.774,0,0,1-6.771,7.082,1.287,1.287,0,0,1-.779.266m-39.4-9.8a1.349,1.349,0,0,1-1.194-.763,25.525,25.525,0,0,1-2.606-8.56c-.053-.443-.1-.892-.129-1.333a1.445,1.445,0,0,1,1.249-1.59,1.405,1.405,0,0,1,1.467,1.354q.044.593.115,1.187a22.424,22.424,0,0,0,2.289,7.514,1.544,1.544,0,0,1-.533,2.007,1.276,1.276,0,0,1-.658.185m50.288-5.461a1.259,1.259,0,0,1-.509-.108,1.521,1.521,0,0,1-.754-1.922,42.681,42.681,0,0,0,2.258-9.091,1.383,1.383,0,0,1,1.547-1.245,1.464,1.464,0,0,1,1.149,1.677,45.8,45.8,0,0,1-2.427,9.763,1.367,1.367,0,0,1-1.264.926M157.732,82.643a1.483,1.483,0,0,1-.031-2.954c2.837-.071,5.832-.275,8.9-.6a1.4,1.4,0,0,1,1.49,1.324,1.451,1.451,0,0,1-1.222,1.615c-3.14.338-6.2.546-9.109.618h-.032m-9.018-.224c-.033,0-.067,0-.1,0a73.017,73.017,0,0,1-9.1-1.283,1.476,1.476,0,0,1-1.081-1.729,1.375,1.375,0,0,1,1.595-1.172,70.463,70.463,0,0,0,8.787,1.238,1.443,1.443,0,0,1,1.26,1.58,1.413,1.413,0,0,1-1.357,1.37M49.225,81.187a1.482,1.482,0,0,1-.007-2.954c2.99-.018,6.015-.076,8.991-.173a1.482,1.482,0,0,1,.081,2.953c-3,.1-6.046.157-9.058.174ZM40.2,81.119h-.026c-3.012-.063-6.058-.167-9.055-.31a1.435,1.435,0,0,1-1.3-1.54,1.406,1.406,0,0,1,1.421-1.411c2.974.142,6,.245,8.988.308a1.483,1.483,0,0,1-.026,2.954m135.486-.353a1.4,1.4,0,0,1-1.344-1.245,1.466,1.466,0,0,1,1.131-1.691c1.532-.264,3.119-.561,4.715-.881,1.355-.272,2.737-.563,4.107-.864a1.368,1.368,0,0,1,1.606,1.153,1.478,1.478,0,0,1-1.064,1.742c-1.386.3-2.784.6-4.154.874-1.618.324-3.227.625-4.782.894a1.284,1.284,0,0,1-.216.018m142.086-.06a1.279,1.279,0,0,1-.38-.059,1.5,1.5,0,0,1-.93-1.83,36.161,36.161,0,0,1,3.95-9.237,1.3,1.3,0,0,1,1.885-.434,1.554,1.554,0,0,1,.4,2.043,33.09,33.09,0,0,0-3.617,8.451,1.384,1.384,0,0,1-1.308,1.066M67.266,80.6a1.415,1.415,0,0,1-1.359-1.4,1.437,1.437,0,0,1,1.286-1.555c2.992-.178,6.01-.4,8.972-.654a1.394,1.394,0,0,1,1.466,1.355,1.445,1.445,0,0,1-1.25,1.59c-2.983.258-6.025.48-9.039.658-.025,0-.05,0-.076,0m17.993-1.552a1.408,1.408,0,0,1-1.353-1.323A1.451,1.451,0,0,1,85.12,76.1c2.047-.232,4.119-.486,6.157-.755q1.379-.182,2.767-.383a1.39,1.39,0,0,1,1.531,1.268,1.461,1.461,0,0,1-1.17,1.66q-1.4.2-2.8.387c-2.055.271-4.141.526-6.2.76a1.28,1.28,0,0,1-.144.008m45.787-.376a1.265,1.265,0,0,1-.439-.079c-1.461-.539-2.912-1.142-4.313-1.792s-2.806-1.388-4.172-2.194a1.543,1.543,0,0,1-.545-2,1.31,1.31,0,0,1,1.848-.591c1.291.762,2.617,1.46,3.94,2.073,1.338.621,2.724,1.2,4.12,1.712a1.509,1.509,0,0,1,.851,1.874,1.375,1.375,0,0,1-1.289,1m62.328-1.795a1.39,1.39,0,0,1-1.323-1.129,1.488,1.488,0,0,1,1-1.784c2.89-.763,5.81-1.6,8.677-2.48a1.35,1.35,0,0,1,1.683,1.017,1.5,1.5,0,0,1-.938,1.825c-2.9.893-5.854,1.737-8.778,2.509a1.267,1.267,0,0,1-.323.042m-90.237-.5a1.4,1.4,0,0,1-1.337-1.206,1.473,1.473,0,0,1,1.088-1.724c3.127-.636,5.974-1.331,8.7-2.126a1.355,1.355,0,0,1,1.669,1.043,1.494,1.494,0,0,1-.962,1.81c-2.8.815-5.711,1.527-8.908,2.176a1.266,1.266,0,0,1-.253.026m269.19-1.346a1.412,1.412,0,0,1-1.357-1.36,42.924,42.924,0,0,0-1.686-9.235,1.506,1.506,0,0,1,.872-1.863,1.342,1.342,0,0,1,1.718.946,46.063,46.063,0,0,1,1.812,9.919,1.444,1.444,0,0,1-1.251,1.588c-.036,0-.073,0-.109,0m-161.592-3.5a1.378,1.378,0,0,1-1.295-1.021,1.507,1.507,0,0,1,.874-1.862c2.842-1,5.694-2.076,8.478-3.187a1.335,1.335,0,0,1,1.749.875,1.516,1.516,0,0,1-.807,1.9c-2.816,1.125-5.7,2.209-8.577,3.224a1.26,1.26,0,0,1-.422.073m-90.206-.321a1.37,1.37,0,0,1-1.271-.944,1.519,1.519,0,0,1,.779-1.91,60.567,60.567,0,0,0,8-4.052,1.307,1.307,0,0,1,1.855.566,1.545,1.545,0,0,1-.522,2.011,63.078,63.078,0,0,1-8.345,4.23,1.261,1.261,0,0,1-.491.1m-5.252-1.858a1.3,1.3,0,0,1-.855-.327,53.437,53.437,0,0,1-6.656-6.982,1.565,1.565,0,0,1,.144-2.083,1.291,1.291,0,0,1,1.922.156,50.506,50.506,0,0,0,6.3,6.61,1.564,1.564,0,0,1,.2,2.077,1.323,1.323,0,0,1-1.061.549m112.4-4.58a1.366,1.366,0,0,1-1.26-.915,1.522,1.522,0,0,1,.741-1.928q1.54-.688,3.071-1.4c1.664-.773,3.354-1.582,5.166-2.473a1.322,1.322,0,0,1,1.8.735,1.53,1.53,0,0,1-.678,1.955c-1.829.9-3.536,1.717-5.218,2.5q-1.549.719-3.106,1.415a1.268,1.268,0,0,1-.519.112m99.7-.357a1.313,1.313,0,0,1-1-.476,1.565,1.565,0,0,1,.078-2.087,38.849,38.849,0,0,1,4.324-3.736c1.026-.761,2.111-1.5,3.222-2.183a1.308,1.308,0,0,1,1.858.551,1.546,1.546,0,0,1-.509,2.015c-1.047.647-2.068,1.339-3.034,2.055a36.121,36.121,0,0,0-4.016,3.468,1.3,1.3,0,0,1-.923.391m166.559-1.987a1.26,1.26,0,0,1-.442-.08c-2.819-1.046-5.694-2.055-8.543-3a1.5,1.5,0,0,1-.9-1.845,1.348,1.348,0,0,1,1.7-.981c2.878.955,5.78,1.974,8.628,3.032a1.508,1.508,0,0,1,.847,1.875,1.375,1.375,0,0,1-1.288,1m-357.783-.851a1.321,1.321,0,0,1-1.054-.539,1.564,1.564,0,0,1,.188-2.079,46.02,46.02,0,0,0,4.034-4.074,32.037,32.037,0,0,0,2.065-2.637,1.294,1.294,0,0,1,1.91-.279,1.561,1.561,0,0,1,.258,2.07,35.3,35.3,0,0,1-2.253,2.876,48.791,48.791,0,0,1-4.283,4.325,1.294,1.294,0,0,1-.864.336M244.129,56.73a1.357,1.357,0,0,1-1.229-.839,1.534,1.534,0,0,1,.639-1.97Q247.277,51.978,251,50l.653-.345a1.317,1.317,0,0,1,1.822.681,1.536,1.536,0,0,1-.629,1.975l-.653.345q-3.734,1.972-7.477,3.927a1.269,1.269,0,0,1-.588.146M476.678,56.7a1.266,1.266,0,0,1-.357-.052c-2.874-.843-5.8-1.647-8.707-2.389a1.486,1.486,0,0,1-1.013-1.777,1.362,1.362,0,0,1,1.639-1.1c2.932.75,5.89,1.562,8.792,2.414a1.494,1.494,0,0,1,.959,1.811,1.385,1.385,0,0,1-1.314,1.092m-109.916-.09a1.34,1.34,0,0,1-1.162-.7,46.013,46.013,0,0,0-4.162-6.117l-.844.148a1.383,1.383,0,0,1-1.564-1.22,1.492,1.492,0,0,1,.909-1.638,1.5,1.5,0,0,1,.4-.764,1.289,1.289,0,0,1,1.926.062l.214.248.389-.064c2.075-.338,4.186-.655,6.272-.941a1.4,1.4,0,0,1,1.522,1.28,1.458,1.458,0,0,1-1.18,1.651c-1.624.223-3.261.463-4.885.719a48.7,48.7,0,0,1,3.327,5.089,1.55,1.55,0,0,1-.447,2.032,1.281,1.281,0,0,1-.712.219m-23.894-1.995a1.373,1.373,0,0,1-1.28-.971,1.514,1.514,0,0,1,.812-1.894,73.109,73.109,0,0,1,8.8-2.824,1.362,1.362,0,0,1,1.64,1.1,1.487,1.487,0,0,1-1.011,1.778,70.729,70.729,0,0,0-8.5,2.724,1.267,1.267,0,0,1-.467.09M103.61,54.57a1.347,1.347,0,0,1-1.189-.752,46.905,46.905,0,0,1-3.653-9.287,1.5,1.5,0,0,1,.921-1.835,1.348,1.348,0,0,1,1.692,1,43.822,43.822,0,0,0,3.413,8.673,1.545,1.545,0,0,1-.518,2.012,1.277,1.277,0,0,1-.668.191m355.5-2.362a1.252,1.252,0,0,1-.271-.03c-2.919-.639-5.89-1.235-8.831-1.773a1.469,1.469,0,0,1-1.117-1.7,1.379,1.379,0,0,1,1.57-1.211c2.97.543,5.97,1.145,8.918,1.79a1.477,1.477,0,0,1,1.065,1.74,1.4,1.4,0,0,1-1.334,1.186m-17.8-3.252a1.311,1.311,0,0,1-.185-.013c-2.947-.433-5.947-.821-8.918-1.152a1.452,1.452,0,0,1-1.216-1.62,1.392,1.392,0,0,1,1.495-1.319c3,.334,6.03.726,9.006,1.163a1.461,1.461,0,0,1,1.167,1.662,1.4,1.4,0,0,1-1.348,1.279M260.378,48.2a1.357,1.357,0,0,1-1.231-.842,1.533,1.533,0,0,1,.644-1.968c3.038-1.57,5.726-2.921,8.217-4.131a1.321,1.321,0,0,1,1.8.744,1.529,1.529,0,0,1-.686,1.952c-2.471,1.2-5.141,2.543-8.16,4.1a1.271,1.271,0,0,1-.585.144m117.9-.707a1.411,1.411,0,0,1-1.355-1.34,1.45,1.45,0,0,1,1.23-1.608c2.991-.3,6.033-.554,9.044-.75a1.4,1.4,0,0,1,1.442,1.386,1.439,1.439,0,0,1-1.278,1.563c-2.981.194-5.993.444-8.954.743q-.065.006-.128.006m45.079-.541c-.032,0-.064,0-.1,0-2.976-.226-5.993-.4-8.968-.525a1.434,1.434,0,0,1-1.31-1.532,1.414,1.414,0,0,1,1.413-1.42c3,.123,6.051.3,9.056.53a1.443,1.443,0,0,1,1.264,1.577,1.414,1.414,0,0,1-1.358,1.374M396.3,46.325a1.484,1.484,0,0,1-.036-2.954c3.01-.088,6.053-.124,9.07-.107a1.482,1.482,0,0,1-.007,2.954h-.008c-2.985-.017-6,.018-8.981.106H396.3m-249.346-.17a1.27,1.27,0,0,1-.525-.115,1.524,1.524,0,0,1-.731-1.933,42.684,42.684,0,0,0,2.384-9.054,1.384,1.384,0,0,1,1.562-1.223,1.468,1.468,0,0,1,1.128,1.694,45.822,45.822,0,0,1-2.56,9.724,1.367,1.367,0,0,1-1.258.907M354.5,42.416a1.288,1.288,0,0,1-.8-.285,53.155,53.155,0,0,0-7.505-4.967,1.539,1.539,0,0,1-.6-1.984,1.315,1.315,0,0,1,1.83-.654,55.843,55.843,0,0,1,7.887,5.221,1.559,1.559,0,0,1,.3,2.064,1.329,1.329,0,0,1-1.1.605M276.869,40.25a1.368,1.368,0,0,1-1.265-.926,1.522,1.522,0,0,1,.755-1.922l.789-.342c2.62-1.129,5.224-2.172,7.74-3.1a1.338,1.338,0,0,1,1.728.923,1.509,1.509,0,0,1-.851,1.874c-2.472.911-5.032,1.937-7.609,3.048l-.779.338a1.273,1.273,0,0,1-.508.107M98.644,35.959a1.419,1.419,0,0,1-1.361-1.437q-.013-.5-.013-1a39.9,39.9,0,0,1,.255-4.5,31.057,31.057,0,0,1,.893-4.636,1.35,1.35,0,0,1,1.692-1,1.5,1.5,0,0,1,.921,1.835,27.864,27.864,0,0,0-.8,4.161A36.706,36.706,0,0,0,100,33.521q0,.461.012.921a1.431,1.431,0,0,1-1.325,1.516h-.038M293.96,33.992a1.386,1.386,0,0,1-1.316-1.1,1.494,1.494,0,0,1,.966-1.807c3.022-.872,6.022-1.6,8.915-2.165a1.372,1.372,0,0,1,1.582,1.192,1.472,1.472,0,0,1-1.1,1.715c-2.82.55-5.746,1.261-8.7,2.113a1.279,1.279,0,0,1-.352.05m44.506-.388a1.257,1.257,0,0,1-.422-.073,55.539,55.539,0,0,0-8.563-2.273,1.469,1.469,0,0,1-1.119-1.7,1.38,1.38,0,0,1,1.568-1.214,58.087,58.087,0,0,1,8.957,2.378,1.506,1.506,0,0,1,.874,1.862,1.378,1.378,0,0,1-1.3,1.021m-26.755-3.029a1.412,1.412,0,0,1-1.357-1.358,1.446,1.446,0,0,1,1.248-1.591c2.226-.2,4.447-.294,6.6-.294h.017c.852,0,1.713.015,2.557.046a1.432,1.432,0,0,1,1.317,1.525,1.413,1.413,0,0,1-1.407,1.427c-.82-.03-1.652-.041-2.484-.044-2.08,0-4.225.1-6.379.285-.038,0-.074,0-.111,0M149.75,27.011a1.41,1.41,0,0,1-1.355-1.34,32.075,32.075,0,0,0-2.052-9.02,1.526,1.526,0,0,1,.717-1.938,1.325,1.325,0,0,1,1.789.777,35.241,35.241,0,0,1,2.259,9.906A1.449,1.449,0,0,1,149.878,27a1.245,1.245,0,0,1-.128.006m-46.115-9.5a1.284,1.284,0,0,1-.773-.262,1.557,1.557,0,0,1-.346-2.055,35.517,35.517,0,0,1,6.369-7.465,1.291,1.291,0,0,1,1.917.207,1.563,1.563,0,0,1-.191,2.079,32.625,32.625,0,0,0-5.853,6.859,1.334,1.334,0,0,1-1.122.637M142.582,9.49a1.306,1.306,0,0,1-.956-.423,20.832,20.832,0,0,0-3.486-2.98,18.632,18.632,0,0,0-3.581-1.9,1.515,1.515,0,0,1-.811-1.9A1.337,1.337,0,0,1,135.5,1.41a21.277,21.277,0,0,1,4.091,2.172,23.611,23.611,0,0,1,3.951,3.378,1.566,1.566,0,0,1,.017,2.089,1.308,1.308,0,0,1-.972.442m-25.15-4.209a1.365,1.365,0,0,1-1.254-.9,1.526,1.526,0,0,1,.719-1.938A26.385,26.385,0,0,1,126.063,0a1.405,1.405,0,0,1,1.45,1.376,1.442,1.442,0,0,1-1.269,1.572,23.855,23.855,0,0,0-8.277,2.21,1.272,1.272,0,0,1-.534.119" transform="translate(-16.275 0)" fill="#fff"/>
        <path id="Path_23" data-name="Path 23" d="M1073.268,132.356a1.264,1.264,0,0,1-.505-.106c-1.388-.6-2.8-1.2-4.21-1.778a1.519,1.519,0,0,1-.79-1.906,1.334,1.334,0,0,1,1.759-.856c1.42.585,2.851,1.19,4.252,1.8a1.521,1.521,0,0,1,.761,1.919,1.369,1.369,0,0,1-1.266.93" transform="translate(-582.786 -64.781)" fill="#fff"/>
      </g>
    </g>
    <g id="Group_599" data-name="Group 599" transform="matrix(-0.559, -0.829, 0.829, -0.559, 792.245, 343.683)">
      <path id="Path_24" data-name="Path 24" d="M0,14.541l13.774,8.571L39.465,0Z" fill="#fe7e5b"/>
      <path id="Path_25" data-name="Path 25" d="M39.465,0,18.483,27.458,28.13,40.5Z" fill="#fe7e5b"/>
    </g>
  </g>
</svg>
