<svg xmlns="http://www.w3.org/2000/svg" xmlns:xlink="http://www.w3.org/1999/xlink" width="141.333" height="136.102" viewBox="0 0 141.333 136.102">
  <defs>
    <clipPath id="clip-path">
      <rect id="Rectangle_1175" data-name="Rectangle 1175" width="141.333" height="136.101" fill="none"/>
    </clipPath>
  </defs>
  <g id="Group_646" data-name="Group 646" clip-path="url(#clip-path)">
    <path id="Path_83" data-name="Path 83" d="M38.88,94.213A203.674,203.674,0,0,0,3.749,64.41S28.2,79.773,38.678,120.061C51.77,78.965,83.8,37.869,83.8,37.869S68.244,54.606,56.916,69.419C52.261,75.509,38.88,94.213,38.88,94.213" transform="translate(-0.49 -4.947)" fill="#0056a3"/>
    <path id="Path_84" data-name="Path 84" d="M0,70.775S27.51,84.8,35.508,126.247c0,0-7.683-35.761-35.508-55.472" transform="translate(0 -9.245)" fill="#fe7e5b"/>
    <path id="Path_85" data-name="Path 85" d="M43.682,92.18S59.426,69.365,68.757,59.293c0,0-17.393,17.3-25.075,32.887" transform="translate(-5.706 -7.745)" fill="#fe7e5b"/>
    <path id="Path_86" data-name="Path 86" d="M104.43,52.01c-4.095,3.063-9.567-.74-9.567-.74s3.531,5.673-4.212,13.951c8.3-7.518,14.116-3.621,14.116-3.621s-3.484-5.54-.336-9.59" transform="translate(-11.841 -6.697)" fill="#fe7e5b"/>
    <path id="Path_87" data-name="Path 87" d="M73.932,45.452c-1.922,1.724-4.845.057-4.845.057s2.03,2.7-1.494,7.206c3.837-4.154,6.938-2.454,6.938-2.454s-2-2.63-.6-4.809" transform="translate(-8.829 -5.937)" fill="#fe7e5b"/>
    <path id="Path_88" data-name="Path 88" d="M73.035,124.641a17.574,17.574,0,0,1-3.977,2.4,11.122,11.122,0,0,1-4.309.8,8.168,8.168,0,0,1-3.832-.862,6.3,6.3,0,0,1-2.544-2.337,6.06,6.06,0,0,1-.894-3.2,5.727,5.727,0,0,1,1.475-3.967,7.37,7.37,0,0,1,4.05-2.2q.54-.124,2.679-.561t3.665-.8q1.527-.364,3.313-.883a5.911,5.911,0,0,0-.9-3.291q-.8-1.05-3.313-1.049a6.9,6.9,0,0,0-3.25.6,5.283,5.283,0,0,0-1.87,1.807,19.183,19.183,0,0,1-1.1,1.589,1.808,1.808,0,0,1-1.381.384,2.417,2.417,0,0,1-1.651-.613,2,2,0,0,1-.7-1.568,4.8,4.8,0,0,1,1.059-2.907,7.582,7.582,0,0,1,3.3-2.326,14.891,14.891,0,0,1,5.587-.914,15.813,15.813,0,0,1,5.878.882,5.469,5.469,0,0,1,3.022,2.793,12.221,12.221,0,0,1,.882,5.068q0,1.994-.01,3.384t-.031,3.095a11.4,11.4,0,0,0,.53,3.333,10.521,10.521,0,0,1,.529,2.233,2.088,2.088,0,0,1-.821,1.588,2.747,2.747,0,0,1-1.859.716,2.507,2.507,0,0,1-1.724-.82,12.169,12.169,0,0,1-1.807-2.379m-.374-8.2a28.471,28.471,0,0,1-3.624.966q-2.379.509-3.291.748a4.476,4.476,0,0,0-1.745.934,2.4,2.4,0,0,0-.831,1.942,2.875,2.875,0,0,0,.976,2.192,3.615,3.615,0,0,0,2.554.9,6.653,6.653,0,0,0,3.105-.737,4.925,4.925,0,0,0,2.087-1.9,8.683,8.683,0,0,0,.769-4.237Z" transform="translate(-7.508 -13.682)" fill="#0160aa"/>
    <path id="Path_89" data-name="Path 89" d="M93.584,119.662V124.4a3.649,3.649,0,0,1-.81,2.586,2.7,2.7,0,0,1-2.056.862,2.6,2.6,0,0,1-2.014-.873,3.719,3.719,0,0,1-.789-2.575V108.612q0-3.821,2.762-3.821a2.307,2.307,0,0,1,2.036.893,4.935,4.935,0,0,1,.685,2.638,9.9,9.9,0,0,1,2.087-2.638,4.311,4.311,0,0,1,2.856-.893,7.308,7.308,0,0,1,3.468.893,2.667,2.667,0,0,1,1.682,2.368,2.251,2.251,0,0,1-.716,1.713,2.222,2.222,0,0,1-1.547.675,7.11,7.11,0,0,1-1.506-.384,6.992,6.992,0,0,0-2.107-.384,3.087,3.087,0,0,0-2.036.654,4.2,4.2,0,0,0-1.225,1.942,13.513,13.513,0,0,0-.6,3.064q-.167,1.775-.166,4.33" transform="translate(-11.484 -13.688)" fill="#0160aa"/>
    <path id="Path_90" data-name="Path 90" d="M114.516,107.927v.686a9.929,9.929,0,0,1,3.271-2.9,8.717,8.717,0,0,1,4.081-.924,8.141,8.141,0,0,1,4.009.976,6.206,6.206,0,0,1,2.638,2.762,6.608,6.608,0,0,1,.727,2.243,23.306,23.306,0,0,1,.166,3.074V124.4a3.756,3.756,0,0,1-.779,2.575,2.588,2.588,0,0,1-2.025.873,2.616,2.616,0,0,1-2.056-.894,3.731,3.731,0,0,1-.789-2.554v-9.45a9.447,9.447,0,0,0-.779-4.289q-.779-1.485-3.105-1.486a4.6,4.6,0,0,0-2.762.9,5.2,5.2,0,0,0-1.827,2.481,17.753,17.753,0,0,0-.416,4.736v7.1a3.684,3.684,0,0,1-.8,2.586,2.691,2.691,0,0,1-2.066.862,2.57,2.57,0,0,1-2.014-.894,3.736,3.736,0,0,1-.789-2.554V108.009a3.573,3.573,0,0,1,.706-2.419,2.445,2.445,0,0,1,1.932-.8,2.617,2.617,0,0,1,1.35.353,2.532,2.532,0,0,1,.966,1.059,3.744,3.744,0,0,1,.363,1.724" transform="translate(-14.264 -13.688)" fill="#0160aa"/>
    <path id="Path_91" data-name="Path 91" d="M153.089,124.641a17.573,17.573,0,0,1-3.977,2.4,11.122,11.122,0,0,1-4.309.8,8.168,8.168,0,0,1-3.832-.862,6.3,6.3,0,0,1-2.544-2.337,6.06,6.06,0,0,1-.894-3.2,5.727,5.727,0,0,1,1.475-3.967,7.37,7.37,0,0,1,4.05-2.2q.54-.124,2.679-.561t3.665-.8q1.527-.364,3.313-.883a5.911,5.911,0,0,0-.9-3.291q-.8-1.05-3.313-1.049a6.9,6.9,0,0,0-3.25.6,5.283,5.283,0,0,0-1.87,1.807,19.179,19.179,0,0,1-1.1,1.589,1.808,1.808,0,0,1-1.381.384,2.417,2.417,0,0,1-1.651-.613,2,2,0,0,1-.7-1.568,4.8,4.8,0,0,1,1.059-2.907,7.582,7.582,0,0,1,3.3-2.326,14.89,14.89,0,0,1,5.587-.914,15.814,15.814,0,0,1,5.878.882,5.469,5.469,0,0,1,3.022,2.793,12.221,12.221,0,0,1,.882,5.068q0,1.994-.01,3.384t-.031,3.095a11.4,11.4,0,0,0,.53,3.333,10.521,10.521,0,0,1,.529,2.233,2.088,2.088,0,0,1-.821,1.588,2.747,2.747,0,0,1-1.859.716,2.507,2.507,0,0,1-1.724-.82,12.17,12.17,0,0,1-1.807-2.379m-.374-8.2a28.472,28.472,0,0,1-3.624.966q-2.379.509-3.291.748a4.476,4.476,0,0,0-1.745.934,2.4,2.4,0,0,0-.831,1.942,2.875,2.875,0,0,0,.976,2.192,3.615,3.615,0,0,0,2.554.9,6.653,6.653,0,0,0,3.105-.737,4.925,4.925,0,0,0,2.087-1.9,8.683,8.683,0,0,0,.769-4.237Z" transform="translate(-17.965 -13.682)" fill="#0160aa"/>
    <path id="Path_92" data-name="Path 92" d="M88.2,140.818h.361v-1.973q0-.793.043-1.244a1.843,1.843,0,0,1,.234-.775,1.478,1.478,0,0,1,.553-.547,1.566,1.566,0,0,1,.806-.21,1.62,1.62,0,0,1,1.13.469,1.386,1.386,0,0,1,.427.763,6.931,6.931,0,0,1,.09,1.28v2.237h1.2a1.539,1.539,0,0,1,1.063.33,1.089,1.089,0,0,1,.367.848.948.948,0,0,1-.522.926,3.393,3.393,0,0,1-1.5.264h-.613v6.036a9.707,9.707,0,0,0,.054,1.184,1.206,1.206,0,0,0,.289.674.987.987,0,0,0,.763.258,4.105,4.105,0,0,0,.782-.1,4.018,4.018,0,0,1,.769-.1.991.991,0,0,1,.715.318,1.072,1.072,0,0,1,.318.788,1.316,1.316,0,0,1-.865,1.215,5.85,5.85,0,0,1-2.489.421,4.292,4.292,0,0,1-2.333-.517,2.388,2.388,0,0,1-1.04-1.43,9.666,9.666,0,0,1-.247-2.44v-6.3h-.433a1.564,1.564,0,0,1-1.082-.336,1.1,1.1,0,0,1-.372-.854,1.06,1.06,0,0,1,.39-.848,1.717,1.717,0,0,1,1.136-.33" transform="translate(-11.322 -17.774)" fill="#58595b"/>
    <path id="Path_93" data-name="Path 93" d="M101.508,149.809v2.741a2.112,2.112,0,0,1-.469,1.5,1.56,1.56,0,0,1-1.191.5,1.5,1.5,0,0,1-1.165-.505,2.147,2.147,0,0,1-.457-1.491v-9.138q0-2.212,1.6-2.212a1.338,1.338,0,0,1,1.179.516,2.848,2.848,0,0,1,.4,1.527,5.729,5.729,0,0,1,1.208-1.527,2.5,2.5,0,0,1,1.654-.516,4.24,4.24,0,0,1,2.008.516,1.545,1.545,0,0,1,.974,1.371,1.3,1.3,0,0,1-.416.992,1.284,1.284,0,0,1-.9.39,4.124,4.124,0,0,1-.871-.222,4.051,4.051,0,0,0-1.221-.223,1.788,1.788,0,0,0-1.18.379,2.43,2.43,0,0,0-.709,1.124,7.894,7.894,0,0,0-.349,1.773q-.1,1.029-.095,2.507" transform="translate(-12.831 -18.444)" fill="#58595b"/>
    <path id="Path_94" data-name="Path 94" d="M118.142,152.691a10.166,10.166,0,0,1-2.3,1.388,6.431,6.431,0,0,1-2.494.463,4.734,4.734,0,0,1-2.219-.5,3.654,3.654,0,0,1-1.473-1.353,3.506,3.506,0,0,1-.517-1.852,3.313,3.313,0,0,1,.854-2.3,4.274,4.274,0,0,1,2.345-1.275q.312-.072,1.551-.324t2.122-.463q.884-.21,1.918-.511a3.424,3.424,0,0,0-.523-1.906,2.34,2.34,0,0,0-1.918-.607,4,4,0,0,0-1.881.349,3.06,3.06,0,0,0-1.082,1.046,10.815,10.815,0,0,1-.637.92,1.043,1.043,0,0,1-.8.223,1.394,1.394,0,0,1-.956-.355,1.153,1.153,0,0,1-.4-.908,2.777,2.777,0,0,1,.613-1.683,4.385,4.385,0,0,1,1.912-1.347,8.625,8.625,0,0,1,3.234-.529,9.148,9.148,0,0,1,3.4.511,3.165,3.165,0,0,1,1.75,1.617,7.088,7.088,0,0,1,.51,2.934q0,1.154-.005,1.96t-.018,1.792a6.6,6.6,0,0,0,.306,1.93,6.039,6.039,0,0,1,.307,1.292,1.213,1.213,0,0,1-.475.921,1.6,1.6,0,0,1-1.076.414,1.452,1.452,0,0,1-1-.475,7.048,7.048,0,0,1-1.046-1.376m-.216-4.749a16.515,16.515,0,0,1-2.1.559q-1.376.295-1.9.433a2.6,2.6,0,0,0-1.01.541,1.386,1.386,0,0,0-.482,1.124,1.662,1.662,0,0,0,.566,1.268,2.09,2.09,0,0,0,1.479.523,3.853,3.853,0,0,0,1.8-.427,2.842,2.842,0,0,0,1.208-1.1,5.024,5.024,0,0,0,.445-2.453Z" transform="translate(-14.256 -18.441)" fill="#58595b"/>
    <path id="Path_95" data-name="Path 95" d="M128.244,143.244,130.9,150.7l2.862-7.779a4.613,4.613,0,0,1,.662-1.328,1.208,1.208,0,0,1,.986-.391,1.485,1.485,0,0,1,1.064.421,1.315,1.315,0,0,1,.439.975,2.015,2.015,0,0,1-.078.505,4.92,4.92,0,0,1-.181.541l-.234.577-3.151,7.815q-.132.336-.343.854a4.337,4.337,0,0,1-.469.883,1.843,1.843,0,0,1-.636.572,1.926,1.926,0,0,1-.921.2,1.775,1.775,0,0,1-1.112-.318,2.151,2.151,0,0,1-.613-.7q-.2-.379-.668-1.5l-3.125-7.731q-.11-.288-.223-.576a5.072,5.072,0,0,1-.193-.589,2.094,2.094,0,0,1-.077-.517,1.258,1.258,0,0,1,.2-.668,1.594,1.594,0,0,1,.565-.541,1.525,1.525,0,0,1,.782-.21,1.245,1.245,0,0,1,1.124.469,7.491,7.491,0,0,1,.679,1.575" transform="translate(-16.314 -18.444)" fill="#58595b"/>
    <path id="Path_96" data-name="Path 96" d="M150.126,148.675h-6.42a4.354,4.354,0,0,0,.451,1.973,3.017,3.017,0,0,0,2.771,1.719,3.9,3.9,0,0,0,1.076-.138,3.517,3.517,0,0,0,.944-.433,7.147,7.147,0,0,0,.842-.63q.385-.336,1-.915a1.082,1.082,0,0,1,.722-.216,1.188,1.188,0,0,1,.817.276.988.988,0,0,1,.312.782,2.132,2.132,0,0,1-.348,1.04,4.127,4.127,0,0,1-1.052,1.142,6,6,0,0,1-1.768.909,7.6,7.6,0,0,1-2.446.36,6.548,6.548,0,0,1-4.918-1.8,6.716,6.716,0,0,1-1.755-4.894,8.167,8.167,0,0,1,.433-2.7,5.951,5.951,0,0,1,1.262-2.133,5.483,5.483,0,0,1,2.044-1.365,7.343,7.343,0,0,1,2.693-.476,6.393,6.393,0,0,1,3.3.812,5.342,5.342,0,0,1,2.062,2.1,5.519,5.519,0,0,1,.685,2.62q0,1.239-.709,1.606a4.424,4.424,0,0,1-2,.366m-6.42-1.863h5.952a4,4,0,0,0-.908-2.519,2.721,2.721,0,0,0-2.074-.835,2.629,2.629,0,0,0-2.014.848,4.218,4.218,0,0,0-.955,2.507" transform="translate(-18.333 -18.441)" fill="#58595b"/>
    <path id="Path_97" data-name="Path 97" d="M157.888,151.816V137.581a2.215,2.215,0,0,1,.439-1.492,1.488,1.488,0,0,1,1.184-.505,1.554,1.554,0,0,1,1.2.5,2.151,2.151,0,0,1,.457,1.5v14.235a2.134,2.134,0,0,1-.463,1.5,1.557,1.557,0,0,1-1.2.5,1.482,1.482,0,0,1-1.172-.517,2.18,2.18,0,0,1-.451-1.479" transform="translate(-20.624 -17.711)" fill="#58595b"/>
  </g>
</svg>
