<svg xmlns="http://www.w3.org/2000/svg" xmlns:xlink="http://www.w3.org/1999/xlink" width="67" height="67" viewBox="0 0 67 67">
  <defs>
    <filter id="Ellipse_1" x="0" y="0" width="67" height="67" filterUnits="userSpaceOnUse">
      <feOffset dy="3" input="SourceAlpha"/>
      <feGaussianBlur stdDeviation="3" result="blur"/>
      <feFlood flood-opacity="0.161"/>
      <feComposite operator="in" in2="blur"/>
      <feComposite in="SourceGraphic"/>
    </filter>
  </defs>
  <g id="Group_648" data-name="Group 648" transform="translate(-1403 -626)">
    <g transform="matrix(1, 0, 0, 1, 1403, 626)" filter="url(#Ellipse_1)">
      <circle id="Ellipse_1-2" data-name="Ellipse 1" cx="24.5" cy="24.5" r="24.5" transform="translate(9 6)" fill="#fe7e5b"/>
    </g>
    <path id="viber" d="M16.071,0c-2.7.037-8.523.48-11.779,3.463C1.876,5.868,1.031,9.41.933,13.8.849,18.166.75,26.371,8.66,28.606v3.4s-.053,1.363.846,1.644c1.11.351,1.742-.7,2.8-1.825l1.967-2.22A30.478,30.478,0,0,0,24.3,28.862c1.1-.351,7.278-1.14,8.29-9.346C33.629,11.044,32.084,5.7,29.3,3.289l-.014,0C28.445,2.513,25.073.054,17.529.026c0,0-.556-.036-1.458-.022Zm.095,2.385c.766,0,1.236.028,1.236.028C23.781,2.43,26.831,4.354,27.548,5c2.346,2.007,3.552,6.822,2.669,13.9-.843,6.856-5.859,7.292-6.786,7.587a28.41,28.41,0,0,1-8.643.731s-3.427,4.132-4.494,5.2a.558.558,0,0,1-.492.211c-.183-.042-.239-.267-.225-.576L9.606,26.4C2.9,24.548,3.3,17.549,3.366,13.9s.773-6.648,2.81-8.671c2.75-2.487,7.691-2.824,9.989-2.838Zm.506,3.653a.421.421,0,1,0,0,.842,7.912,7.912,0,0,1,5.662,2.234,8.17,8.17,0,0,1,2.306,6.1.421.421,0,0,0,.421.421v-.012a.421.421,0,0,0,.421-.421A9.063,9.063,0,0,0,22.94,8.514a8.678,8.678,0,0,0-6.269-2.473Zm-5.555.969a1.341,1.341,0,0,0-.864.169h-.017A6.666,6.666,0,0,0,8.623,8.5a2.623,2.623,0,0,0-.648,1.333,1.742,1.742,0,0,0,.07.761l.028.014a19.278,19.278,0,0,0,1.686,3.653,21.613,21.613,0,0,0,3.259,4.455l.042.056.056.042.042.042.042.042a21.921,21.921,0,0,0,4.468,3.273,20.513,20.513,0,0,0,3.656,1.686v.014a2,2,0,0,0,.559.084,2.585,2.585,0,0,0,1.548-.663,6.345,6.345,0,0,0,1.307-1.613v-.014a1.2,1.2,0,0,0-.253-1.574,19.152,19.152,0,0,0-3.021-2.164,1.372,1.372,0,0,0-1.742.239l-.632.8a1.148,1.148,0,0,1-.913.337l-.017.014a8.245,8.245,0,0,1-5.549-5.563,1.116,1.116,0,0,1,.351-.913l.787-.632a1.4,1.4,0,0,0,.239-1.756A19,19,0,0,0,11.825,7.43a1.184,1.184,0,0,0-.708-.421ZM17.4,8.26a.421.421,0,0,0,0,.843,5.311,5.311,0,0,1,3.723,1.616,4.917,4.917,0,0,1,1.264,3.611.421.421,0,0,0,.421.421l.014.017a.421.421,0,0,0,.421-.423,5.8,5.8,0,0,0-1.5-4.2A6.127,6.127,0,0,0,17.46,8.26a.421.421,0,0,0-.059,0Zm.688,2.275a.429.429,0,1,0-.025.858,2.033,2.033,0,0,1,2.15,2.22.421.421,0,0,0,.421.407h.014a.421.421,0,0,0,.407-.45,2.872,2.872,0,0,0-2.95-3.037H18.09Z" transform="translate(1419.585 639.64)" fill="#fff"/>
  </g>
</svg>
