<svg id="wallet" xmlns="http://www.w3.org/2000/svg" width="18.699" height="16.694" viewBox="0 0 18.699 16.694">
  <path id="Path_26" data-name="Path 26" d="M5.261,5.713H18.617a3.662,3.662,0,0,1,.467.03,2.755,2.755,0,0,0-3.235-2.319L4.865,5.3H4.852a2.755,2.755,0,0,0-1.714,1.09,3.655,3.655,0,0,1,2.123-.676Z" transform="translate(-2.59 -3.376)" fill="#fe7e5b"/>
  <path id="Path_27" data-name="Path 27" d="M18.242,9H4.886a2.674,2.674,0,0,0-2.671,2.671v8.014a2.674,2.674,0,0,0,2.671,2.671H18.242a2.674,2.674,0,0,0,2.671-2.671V11.671A2.674,2.674,0,0,0,18.242,9ZM16.26,17.014A1.336,1.336,0,1,1,17.6,15.678,1.336,1.336,0,0,1,16.26,17.014Z" transform="translate(-2.215 -5.662)" fill="#fe7e5b"/>
  <path id="Path_28" data-name="Path 28" d="M2.25,13.331V9.178A2.733,2.733,0,0,1,4.489,6.429a18.1,18.1,0,0,1,2.937-.277s.96.668.167.668a.516.516,0,1,0,0,1.023c.772,0,0,.981,0,.981L4.483,12.35Z" transform="translate(-2.229 -4.504)" fill="#fe7e5b"/>
</svg>
